<svg xmlns="http://www.w3.org/2000/svg" xmlns:xlink="http://www.w3.org/1999/xlink" width="1366" zoomAndPan="magnify" viewBox="0 0 1024.5 672.749985" height="768" preserveAspectRatio="xMidYMid meet" version="1.0"><path fill="#000000" d="M 392.617188 150.71875 C 426.511719 145.878906 458.25 167.933594 482.996094 192.140625 C 507.746094 215.808594 530.878906 243.785156 563.695312 255.078125 C 586.828125 263.148438 612.113281 261.535156 636.320312 263.6875 C 660.53125 265.839844 686.890625 272.832031 701.957031 292.199219 C 718.09375 313.175781 716.480469 343.300781 703.570312 366.433594 C 690.65625 389.5625 668.601562 405.703125 645.46875 418.074219 C 622.335938 430.449219 597.585938 439.59375 574.453125 451.964844 C 543.789062 468.640625 514.738281 492.847656 479.769531 494.460938 C 449.644531 496.074219 421.667969 479.9375 395.308594 464.335938 C 370.023438 449.277344 342.046875 430.449219 338.820312 401.9375 C 336.128906 380.417969 348.503906 359.976562 357.648438 340.613281 C 367.332031 321.246094 374.863281 297.039062 363.566406 278.75 C 349.042969 254.542969 311.921875 242.167969 330.210938 208.28125 C 345.277344 181.921875 360.875 155.023438 392.617188 150.71875 Z M 606.195312 222.265625 C 633.09375 214.195312 621.796875 161.480469 592.207031 170.085938 C 561.542969 179.230469 578.21875 230.335938 606.195312 222.265625 Z M 356.574219 552.023438 C 383.472656 543.953125 372.175781 491.234375 342.585938 499.839844 C 311.921875 508.988281 328.597656 560.089844 356.574219 552.023438 Z M 356.574219 552.023438 " fill-opacity="1" fill-rule="nonzero"/><path fill="#ffffff" d="M 558.851562 507.371094 C 521.195312 507.371094 484.074219 492.847656 457.175781 466.488281 C 451.796875 461.109375 446.414062 455.191406 441.574219 449.277344 C 432.964844 439.054688 423.820312 428.296875 412.523438 420.765625 C 402.300781 413.773438 389.929688 409.46875 378.628906 405.164062 C 375.941406 404.089844 373.789062 403.550781 371.097656 402.476562 C 356.574219 397.09375 341.507812 390.640625 330.75 378.804688 C 318.914062 365.355469 315.148438 347.066406 322.140625 333.617188 C 322.679688 332.542969 324.292969 332.003906 325.910156 332.542969 C 326.984375 333.082031 327.523438 334.695312 326.984375 336.308594 C 319.992188 349.757812 325.910156 365.894531 334.515625 375.578125 C 344.738281 386.875 358.726562 392.792969 372.710938 398.171875 C 374.863281 399.246094 377.554688 399.785156 380.246094 400.859375 C 392.078125 405.164062 404.453125 409.46875 415.210938 417 C 427.046875 425.066406 436.730469 435.828125 445.339844 446.585938 C 450.179688 452.503906 455.023438 458.421875 460.402344 463.261719 C 499.675781 501.992188 562.082031 513.828125 612.652344 491.773438 C 621.257812 488.007812 640.625 477.785156 641.164062 460.570312 C 641.164062 451.425781 636.320312 442.820312 630.402344 434.214844 C 623.949219 424.53125 618.03125 414.308594 619.105469 402.476562 C 620.71875 389.5625 630.941406 381.496094 641.164062 373.964844 C 648.695312 368.046875 656.765625 361.589844 660.53125 353.523438 C 667.523438 337.921875 656.765625 319.09375 642.777344 309.949219 C 629.867188 301.878906 613.726562 298.652344 598.664062 295.425781 C 595.972656 294.886719 593.820312 294.347656 591.132812 293.8125 C 573.378906 290.046875 553.472656 284.667969 540.5625 269.605469 C 529.265625 256.15625 526.574219 238.941406 523.882812 221.726562 C 521.734375 207.203125 519.042969 191.601562 510.972656 179.769531 C 495.371094 156.097656 462.015625 151.257812 437.269531 158.789062 C 410.910156 166.859375 388.3125 186.222656 368.410156 206.128906 C 358.726562 215.808594 348.503906 226.570312 343.125 238.941406 C 338.28125 249.699219 336.128906 265.300781 344.199219 277.136719 C 345.277344 278.210938 344.738281 279.824219 343.660156 280.902344 C 342.585938 281.976562 340.972656 281.4375 339.894531 280.363281 C 332.363281 268.527344 331.824219 251.851562 338.28125 236.789062 C 344.199219 223.339844 354.421875 212.582031 364.644531 202.363281 C 385.085938 181.921875 407.679688 162.015625 435.65625 153.949219 C 462.554688 145.878906 498.597656 151.257812 515.816406 177.078125 C 524.421875 189.988281 527.113281 206.128906 529.800781 221.191406 C 532.492188 238.402344 535.183594 254.003906 545.402344 266.375 C 557.238281 280.363281 576.066406 285.742188 592.746094 288.96875 C 595.433594 289.507812 597.585938 290.046875 600.277344 290.582031 C 615.878906 293.8125 632.554688 296.5 646.542969 305.644531 C 662.683594 315.867188 674.519531 337.921875 666.449219 356.210938 C 662.144531 365.894531 653.539062 372.351562 645.46875 378.804688 C 635.785156 386.335938 627.175781 393.328125 625.5625 404.089844 C 624.488281 413.773438 629.867188 422.917969 635.785156 432.0625 C 641.703125 441.207031 647.621094 450.351562 647.082031 461.648438 C 646.542969 482.089844 625.023438 493.925781 615.339844 497.691406 C 597.585938 503.070312 578.21875 507.371094 558.851562 507.371094 Z M 620.183594 207.203125 C 635.785156 202.363281 640.085938 184.609375 635.785156 170.085938 C 632.019531 156.636719 620.71875 145.339844 604.582031 150.183594 C 595.4375 152.871094 588.980469 159.328125 586.828125 168.472656 C 584.136719 179.769531 587.902344 193.21875 596.511719 201.824219 C 601.351562 206.664062 606.734375 208.816406 613.1875 208.816406 C 615.878906 207.742188 618.03125 207.742188 620.183594 207.203125 Z M 630.941406 171.160156 C 634.707031 183.535156 631.480469 198.058594 619.105469 201.824219 C 611.035156 203.976562 604.582031 200.75 601.351562 196.984375 C 594.359375 189.988281 590.59375 178.15625 592.746094 169.011719 C 593.820312 164.167969 597.585938 157.714844 606.734375 155.023438 C 608.886719 154.484375 610.5 153.949219 612.113281 153.949219 C 621.796875 153.949219 628.253906 162.554688 630.941406 171.160156 Z M 370.5625 536.421875 C 386.160156 531.578125 390.464844 513.828125 386.160156 499.304688 C 382.394531 485.855469 371.097656 474.558594 354.960938 479.398438 C 345.8125 482.089844 339.359375 488.542969 337.207031 497.691406 C 334.515625 508.988281 338.28125 522.433594 346.890625 531.042969 C 351.730469 535.882812 357.109375 538.035156 363.566406 538.035156 C 366.257812 537.496094 368.410156 537.496094 370.5625 536.421875 Z M 370.023438 534.269531 Z M 381.320312 500.917969 C 385.085938 513.289062 381.859375 527.8125 369.484375 531.578125 C 361.414062 533.730469 354.960938 530.503906 351.730469 526.738281 C 344.738281 519.746094 340.972656 507.910156 343.125 498.765625 C 344.199219 493.925781 347.964844 487.46875 357.109375 484.78125 C 359.261719 484.242188 360.875 483.703125 362.492188 483.703125 C 372.175781 483.703125 378.628906 492.308594 381.320312 500.917969 Z M 381.320312 500.917969 " fill-opacity="1" fill-rule="nonzero"/></svg>