<svg xmlns="http://www.w3.org/2000/svg" xmlns:xlink="http://www.w3.org/1999/xlink" width="1366" zoomAndPan="magnify" viewBox="0 0 1024.5 672.749985" height="768" preserveAspectRatio="xMidYMid meet" version="1.0"><defs><clipPath id="10ff418ffc"><path d="M 356 153 L 716.851562 153 L 716.851562 544.160156 L 356 544.160156 Z M 356 153 " clip-rule="nonzero"/></clipPath></defs><path fill="#000000" d="M 599.8125 132.15625 C 566.011719 137.984375 535.707031 160.710938 521.136719 191.597656 C 511.808594 210.828125 508.894531 231.808594 502.484375 252.203125 C 496.074219 272.601562 486.167969 292.996094 467.515625 303.484375 C 432.546875 323.882812 384.757812 300.570312 348.625 318.636719 C 317.734375 334.371094 307.828125 375.746094 314.820312 409.546875 C 325.3125 458.496094 364.941406 499.871094 413.316406 512.109375 C 461.6875 524.929688 516.472656 508.03125 549.109375 470.152344 C 563.679688 453.25 574.753906 432.855469 593.402344 421.199219 C 624.875 401.386719 672.664062 409.546875 694.8125 379.824219 C 712.296875 357.097656 703.554688 323.882812 690.730469 298.242188 C 677.910156 272.601562 661.007812 246.375 663.339844 217.820312 C 665.089844 195.675781 695.976562 172.367188 681.40625 151.972656 C 666.835938 131.574219 621.960938 128.660156 599.8125 132.15625 Z M 415.0625 249.871094 C 395.25 251.039062 394.082031 221.902344 396.414062 209.664062 C 398.164062 200.921875 401.078125 191.597656 407.488281 185.1875 C 413.316406 178.195312 422.640625 174.113281 431.964844 175.863281 C 447.117188 179.359375 453.527344 199.171875 448.285156 213.742188 C 444.203125 223.066406 426.71875 249.289062 415.0625 249.871094 Z M 678.492188 530.175781 C 658.679688 531.339844 657.511719 502.203125 659.84375 489.964844 C 661.59375 481.222656 664.507812 471.898438 670.917969 465.488281 C 676.746094 458.496094 686.070312 454.417969 695.394531 456.164062 C 710.546875 459.664062 716.957031 479.476562 711.714844 494.042969 C 708.214844 503.367188 690.148438 529.59375 678.492188 530.175781 Z M 678.492188 530.175781 " fill-opacity="1" fill-rule="nonzero"/><g clip-path="url(#10ff418ffc)"><path fill="#ffffff" d="M 503.652344 544.160156 C 507.148438 544.160156 510.644531 544.160156 514.140625 543.578125 C 547.945312 540.664062 577.667969 519.101562 586.992188 491.714844 C 593.984375 470.734375 588.742188 448.589844 584.078125 427.027344 C 582.914062 422.367188 581.746094 417.121094 581.164062 412.460938 C 577.667969 393.8125 574.753906 359.429688 597.484375 342.53125 C 611.46875 332.039062 630.121094 331.457031 648.769531 330.875 C 652.851562 330.875 656.929688 330.875 661.007812 330.292969 C 684.902344 329.125 712.296875 319.21875 716.957031 296.492188 L 711.128906 295.328125 C 707.050781 315.140625 681.40625 323.300781 661.007812 324.464844 C 656.929688 324.464844 652.851562 325.046875 648.769531 325.046875 C 629.539062 325.628906 609.722656 326.210938 594.570312 337.867188 C 568.925781 357.097656 571.839844 393.230469 575.917969 413.625 C 577.085938 418.285156 578.25 423.53125 578.832031 428.195312 C 583.496094 448.589844 588.15625 470.152344 582.328125 489.964844 C 574.171875 515.023438 546.195312 534.835938 514.722656 537.75 C 487.914062 540.082031 458.773438 532.503906 428.46875 515.023438 C 406.90625 502.203125 378.347656 480.640625 367.273438 449.753906 C 356.78125 420.035156 366.691406 386.234375 390.585938 371.085938 C 405.738281 361.761719 423.222656 360.011719 442.457031 358.265625 C 459.355469 356.515625 476.839844 354.765625 492.578125 347.191406 C 521.136719 332.621094 534.539062 302.320312 543.863281 274.347656 L 546.195312 266.773438 C 554.9375 241.132812 563.679688 214.90625 583.496094 197.425781 C 602.726562 180.527344 631.867188 173.53125 656.929688 180.527344 C 681.988281 187.519531 702.972656 207.914062 709.964844 231.808594 L 715.792969 230.058594 C 708.214844 203.835938 686.070312 182.273438 658.679688 174.699219 C 631.285156 167.121094 600.398438 174.113281 579.414062 192.761719 C 558.433594 211.410156 549.109375 238.800781 540.367188 265.023438 L 538.035156 272.015625 C 528.710938 298.824219 515.890625 328.542969 489.664062 341.945312 C 475.09375 348.941406 458.191406 350.6875 441.871094 352.4375 C 423.222656 354.183594 403.992188 356.515625 387.671875 366.421875 C 360.863281 382.738281 349.789062 419.453125 361.445312 451.503906 C 370.769531 477.726562 392.917969 501.039062 424.972656 520.269531 C 452.363281 536.003906 478.589844 544.160156 503.652344 544.160156 Z M 385.921875 227.726562 C 377.765625 218.402344 377.179688 199.171875 378.929688 189.847656 C 381.261719 178.777344 384.757812 170.035156 390.585938 163.625 C 397.578125 155.46875 408.652344 151.386719 417.394531 153.71875 C 424.390625 154.882812 429.632812 159.546875 433.714844 166.539062 C 438.375 175.28125 439.542969 186.351562 436.046875 195.675781 C 432.546875 204.417969 414.480469 232.972656 400.492188 234.136719 C 399.910156 234.136719 399.328125 234.136719 399.328125 234.136719 C 394.082031 234.136719 389.421875 231.808594 385.921875 227.726562 Z M 430.800781 193.929688 C 433.714844 186.351562 432.546875 176.445312 429.050781 169.453125 C 426.71875 165.957031 423.222656 161.292969 416.8125 159.546875 C 409.820312 157.796875 401.078125 161.292969 395.25 167.703125 C 390.585938 172.949219 387.089844 180.527344 385.339844 191.015625 C 383.59375 200.339844 384.175781 216.65625 390.585938 224.230469 C 392.917969 227.144531 396.414062 228.3125 400.492188 228.3125 C 409.820312 227.726562 426.71875 203.835938 430.800781 193.929688 Z M 649.351562 508.613281 C 641.195312 499.289062 640.609375 480.058594 642.359375 470.734375 C 644.691406 459.664062 648.1875 450.921875 654.015625 444.511719 C 661.007812 436.351562 672.082031 432.273438 680.824219 434.605469 C 687.816406 435.769531 693.0625 440.429688 697.144531 447.425781 C 701.804688 456.164062 702.972656 467.238281 699.472656 476.5625 C 695.976562 485.304688 677.910156 513.859375 663.921875 515.023438 C 663.339844 515.023438 662.757812 515.023438 662.757812 515.023438 C 657.511719 514.441406 652.851562 512.109375 649.351562 508.613281 Z M 694.230469 474.230469 C 697.144531 466.65625 695.976562 456.75 692.480469 449.753906 C 690.148438 446.257812 686.652344 441.597656 680.242188 439.847656 C 673.246094 438.101562 664.507812 441.597656 658.679688 448.007812 C 654.015625 453.253906 650.519531 460.828125 648.769531 471.316406 C 647.023438 480.640625 647.605469 496.957031 654.015625 504.535156 C 656.347656 507.449219 659.84375 508.613281 663.921875 508.613281 C 673.832031 508.03125 690.730469 484.71875 694.230469 474.230469 Z M 694.230469 474.230469 " fill-opacity="1" fill-rule="nonzero"/></g></svg>