<svg xmlns="http://www.w3.org/2000/svg" xmlns:xlink="http://www.w3.org/1999/xlink" width="1366" zoomAndPan="magnify" viewBox="0 0 1024.5 672.749985" height="768" preserveAspectRatio="xMidYMid meet" version="1.0"><defs><clipPath id="8defd15228"><path d="M 316 139.507812 L 716 139.507812 L 716 493 L 316 493 Z M 316 139.507812 " clip-rule="nonzero"/></clipPath></defs><path fill="#000000" d="M 353.925781 285.347656 C 365.972656 262.265625 389.015625 245.476562 414.679688 241.804688 C 444.011719 237.609375 475.4375 249.148438 503.71875 239.183594 C 531.480469 229.738281 552.429688 200.363281 581.761719 202.460938 C 603.757812 204.035156 621.042969 225.019531 625.230469 247.050781 C 629.945312 269.085938 624.707031 291.644531 619.996094 313.152344 C 614.757812 335.183594 610.042969 357.742188 614.234375 379.25 C 618.945312 401.285156 632.566406 420.695312 635.707031 443.253906 C 640.945312 478.402344 614.757812 514.074219 580.710938 524.042969 C 546.667969 534.007812 507.910156 520.894531 483.292969 495.1875 C 469.152344 480.5 459.199219 462.136719 447.675781 444.828125 C 427.773438 415.449219 401.585938 389.21875 371.734375 369.285156 C 356.542969 359.316406 349.734375 357.21875 346.070312 337.808594 C 342.925781 319.972656 345.542969 301.085938 353.925781 285.347656 Z M 503.71875 205.082031 C 512.101562 204.558594 513.671875 188.296875 513.148438 182 C 512.101562 172.558594 506.863281 163.117188 499.007812 157.34375 C 492.195312 163.640625 488.53125 173.082031 489.054688 182.527344 C 489.578125 189.34375 495.339844 205.609375 503.71875 205.082031 Z M 674.464844 365.085938 C 683.894531 365.085938 692.796875 360.367188 698.558594 352.496094 C 692.273438 345.152344 682.320312 340.957031 672.894531 340.957031 C 666.609375 340.957031 650.894531 344.101562 650.894531 352.496094 C 650.894531 360.890625 668.179688 365.085938 674.464844 365.085938 Z M 674.464844 365.085938 " fill-opacity="1" fill-rule="nonzero"/><g clip-path="url(#8defd15228)"><path fill="#ffffff" d="M 602.1875 492.566406 C 584.902344 492.566406 566.570312 486.792969 549.285156 475.253906 C 534.097656 465.285156 521.003906 452.695312 508.433594 440.628906 C 501.625 433.808594 494.816406 426.988281 487.484375 420.695312 C 462.34375 398.660156 438.25 388.167969 415.726562 389.21875 C 411.539062 389.21875 407.871094 389.742188 403.683594 390.269531 C 397.921875 390.792969 391.636719 391.839844 385.351562 391.316406 C 375.921875 390.792969 362.828125 386.070312 358.636719 375.054688 C 358.113281 373.480469 358.636719 372.429688 360.210938 371.90625 C 361.78125 371.382812 362.828125 371.90625 363.351562 373.480469 C 366.496094 382.398438 376.96875 386.070312 385.351562 386.59375 C 391.113281 387.121094 396.347656 386.070312 402.632812 385.546875 C 406.824219 385.023438 411.015625 384.496094 415.203125 384.496094 C 439.296875 383.449219 464.4375 394.464844 490.625 417.023438 C 497.957031 423.316406 504.765625 430.136719 512.101562 436.957031 C 524.671875 449.023438 537.242188 461.613281 551.90625 471.054688 C 577.570312 488.367188 605.851562 492.566406 626.804688 482.597656 C 642.515625 475.253906 654.039062 459.515625 656.65625 442.203125 C 659.277344 424.890625 652.46875 406.53125 639.898438 394.988281 C 633.613281 389.21875 626.28125 385.023438 618.421875 380.824219 C 615.28125 378.726562 611.613281 377.152344 608.472656 375.054688 C 594.332031 366.136719 585.949219 356.695312 583.332031 345.675781 C 580.710938 335.183594 583.332031 325.21875 585.949219 315.25 C 586.472656 312.628906 587.519531 309.480469 588.046875 306.855469 C 589.09375 301.085938 592.234375 282.199219 580.1875 274.855469 C 573.902344 270.660156 564.476562 271.183594 552.953125 275.90625 C 551.382812 276.429688 549.8125 276.953125 548.238281 278.003906 C 539.859375 281.675781 531.480469 284.824219 522.050781 284.296875 C 506.339844 282.726562 496.386719 270.660156 486.4375 258.59375 C 483.816406 255.445312 481.199219 252.296875 479.101562 249.675781 C 451.867188 219.773438 404.730469 211.378906 369.636719 230.265625 C 334.023438 249.148438 314.117188 292.691406 323.546875 331.511719 C 324.070312 333.085938 323.023438 334.136719 321.453125 334.660156 C 319.878906 335.183594 318.832031 334.136719 318.308594 332.5625 C 308.882812 291.117188 329.832031 244.953125 367.019531 225.019531 C 404.730469 205.082031 454.488281 214.003906 482.769531 245.476562 C 485.386719 248.625 488.007812 251.25 490.625 254.394531 C 499.53125 265.414062 509.480469 276.953125 522.574219 278.527344 C 530.429688 279.050781 538.289062 275.90625 546.144531 272.757812 C 547.714844 272.234375 549.285156 271.707031 550.859375 270.660156 C 564.476562 265.414062 574.949219 265.414062 582.808594 270.132812 C 597.472656 279.578125 594.328125 301.609375 593.28125 307.90625 C 592.757812 310.527344 592.234375 313.675781 591.1875 316.300781 C 588.570312 325.742188 585.949219 335.183594 588.570312 344.101562 C 591.1875 353.546875 598.519531 362.464844 611.613281 370.332031 C 614.757812 372.429688 617.898438 374.003906 621.566406 376.105469 C 629.421875 380.300781 637.277344 384.496094 644.085938 390.792969 C 658.230469 403.90625 665.5625 423.84375 662.417969 442.726562 C 659.800781 461.613281 646.707031 478.925781 629.421875 487.320312 C 621.042969 490.992188 611.613281 492.566406 602.1875 492.566406 Z M 510.527344 192.492188 C 513.148438 192.492188 515.242188 190.917969 516.8125 188.820312 C 521.527344 183.050781 522.574219 171.507812 522.050781 166.261719 C 521.003906 155.769531 515.242188 145.804688 506.863281 140.03125 C 505.816406 139.507812 504.242188 139.507812 503.71875 140.03125 C 496.386719 146.851562 492.195312 157.34375 492.722656 167.3125 C 493.246094 174.65625 499.007812 191.96875 509.480469 191.96875 C 510.003906 192.492188 510.527344 192.492188 510.527344 192.492188 Z M 517.335938 167.3125 C 517.859375 171.507812 516.8125 181.476562 513.148438 185.671875 C 512.101562 186.722656 511.578125 187.246094 510.527344 187.246094 C 504.242188 187.773438 499.007812 173.609375 498.480469 167.3125 C 497.957031 159.445312 500.578125 151.574219 505.816406 145.804688 C 512.101562 151.050781 516.289062 158.917969 517.335938 167.3125 Z M 688.605469 359.316406 C 698.558594 359.316406 708.507812 354.070312 714.792969 345.675781 C 715.320312 344.628906 715.320312 343.578125 714.792969 342.527344 C 707.984375 334.660156 697.511719 329.9375 687.035156 329.9375 C 682.320312 329.9375 670.800781 332.039062 665.5625 337.28125 C 663.464844 339.382812 662.941406 341.480469 662.941406 344.101562 C 662.941406 355.121094 680.75 359.316406 688.605469 359.316406 Z M 688.605469 356.695312 Z M 709.558594 344.101562 C 704.320312 349.875 696.988281 353.546875 689.128906 354.070312 C 683.367188 354.59375 668.179688 350.398438 668.179688 344.101562 C 668.179688 343.054688 668.703125 342.003906 669.75 340.957031 C 673.417969 336.757812 683.367188 335.183594 687.558594 335.183594 C 687.558594 335.183594 688.082031 335.183594 688.082031 335.183594 C 695.414062 335.183594 703.796875 338.332031 709.558594 344.101562 Z M 709.558594 344.101562 " fill-opacity="1" fill-rule="nonzero"/></g></svg>