<svg xmlns="http://www.w3.org/2000/svg" xmlns:xlink="http://www.w3.org/1999/xlink" width="1366" zoomAndPan="magnify" viewBox="0 0 1024.5 672.749985" height="768" preserveAspectRatio="xMidYMid meet" version="1.0"><defs><clipPath id="e690136df3"><path d="M 311 176 L 714 176 L 714 490.695312 L 311 490.695312 Z M 311 176 " clip-rule="nonzero"/></clipPath></defs><path fill="#000000" d="M 623.558594 202.882812 C 586.773438 169.316406 531.054688 158.488281 483.992188 174.730469 C 446.667969 187.722656 416.375 215.875 393.652344 247.816406 C 370.933594 280.296875 355.789062 316.570312 340.640625 352.84375 C 333.609375 369.625 326.035156 387.488281 324.414062 405.898438 C 322.789062 424.304688 327.117188 444.335938 340.101562 457.328125 C 364.441406 481.148438 404.472656 471.945312 436.929688 461.660156 C 468.847656 451.371094 500.222656 440.542969 532.136719 430.257812 C 575.953125 415.640625 660.34375 393.445312 674.40625 341.472656 C 685.769531 297.621094 654.933594 231.03125 623.558594 202.882812 Z M 687.390625 463.824219 C 676.570312 470.320312 660.882812 463.824219 654.933594 452.453125 C 648.984375 440.003906 653.851562 423.222656 665.210938 416.183594 C 700.375 393.988281 713.355469 448.125 687.390625 463.824219 Z M 363.359375 215.875 C 352.542969 222.371094 336.855469 215.875 330.902344 204.503906 C 324.953125 192.054688 329.820312 175.269531 341.183594 168.234375 C 376.34375 146.035156 389.328125 200.175781 363.359375 215.875 Z M 363.359375 215.875 " fill-opacity="1" fill-rule="nonzero"/><g clip-path="url(#e690136df3)"><path fill="#ffffff" d="M 432.601562 490.351562 C 440.71875 490.351562 449.371094 489.808594 458.566406 488.1875 C 516.449219 478.980469 572.167969 456.246094 619.773438 422.136719 C 620.855469 421.054688 621.394531 419.429688 620.3125 418.347656 C 619.230469 417.265625 617.609375 416.722656 616.527344 417.808594 C 569.464844 451.371094 514.285156 474.109375 457.484375 482.773438 C 425.570312 487.644531 402.851562 483.855469 388.246094 470.863281 C 363.902344 448.664062 370.933594 408.605469 377.425781 386.40625 C 390.410156 340.933594 413.667969 298.164062 443.960938 261.890625 C 468.847656 232.65625 509.417969 195.300781 562.972656 183.933594 C 613.28125 173.648438 665.210938 191.511719 691.71875 228.324219 C 706.324219 248.355469 711.734375 275.96875 706.863281 301.953125 C 702.539062 324.691406 690.09375 343.097656 672.785156 354.464844 C 671.703125 355.007812 671.160156 357.171875 671.703125 358.253906 C 672.242188 359.339844 674.40625 359.878906 675.488281 359.339844 C 694.421875 347.429688 707.40625 327.398438 711.734375 303.578125 C 717.144531 276.507812 711.191406 247.273438 696.046875 226.160156 C 668.457031 187.722656 614.363281 168.773438 561.890625 179.601562 C 507.253906 190.972656 465.601562 229.410156 440.175781 259.183594 C 409.339844 295.996094 386.082031 339.308594 372.558594 385.324219 C 366.066406 408.605469 358.492188 451.371094 385 475.191406 C 396.359375 485.480469 412.046875 490.351562 432.601562 490.351562 Z M 655.472656 487.644531 C 647.902344 485.480469 641.410156 480.066406 638.164062 473.027344 C 631.671875 459.492188 636.542969 441.085938 649.523438 432.964844 C 661.964844 425.386719 670.621094 427.011719 676.03125 429.71875 C 684.144531 434.046875 689.011719 443.792969 689.554688 455.160156 C 690.09375 468.15625 684.144531 479.523438 674.40625 485.480469 C 671.160156 487.644531 667.375 488.726562 663.046875 488.726562 C 660.34375 488.726562 658.179688 488.1875 655.472656 487.644531 Z M 652.230469 437.835938 C 641.949219 444.335938 637.621094 459.492188 643.03125 470.863281 C 645.738281 476.277344 651.148438 480.605469 657.097656 482.773438 C 662.507812 484.394531 667.375 483.855469 671.160156 481.148438 C 680.898438 475.191406 683.605469 464.363281 683.605469 455.703125 C 683.0625 445.957031 679.277344 438.378906 673.324219 434.589844 C 671.160156 433.507812 669 432.964844 666.292969 432.964844 C 661.964844 432.964844 657.636719 434.589844 652.230469 437.835938 Z M 331.445312 239.695312 C 323.871094 237.527344 317.378906 232.117188 314.132812 225.078125 C 307.644531 211.542969 312.511719 193.136719 325.496094 185.015625 C 337.9375 177.4375 346.589844 179.0625 352 181.765625 C 360.113281 186.097656 364.984375 195.84375 365.523438 207.210938 C 366.066406 220.207031 360.113281 231.574219 350.378906 237.527344 C 347.132812 239.695312 343.34375 240.777344 339.019531 240.777344 C 336.3125 240.777344 333.609375 240.234375 331.445312 239.695312 Z M 328.199219 189.886719 C 317.921875 196.382812 313.59375 211.542969 319.003906 222.910156 C 321.707031 228.324219 327.117188 232.65625 333.066406 234.824219 C 338.476562 236.445312 343.34375 235.90625 347.132812 233.199219 C 356.871094 227.242188 359.574219 216.414062 359.574219 207.753906 C 359.035156 198.007812 355.246094 190.429688 349.296875 186.640625 C 347.132812 185.558594 344.96875 185.015625 342.265625 185.015625 C 337.9375 185.015625 333.066406 186.640625 328.199219 189.886719 Z M 328.199219 189.886719 " fill-opacity="1" fill-rule="nonzero"/></g></svg>