<svg xmlns="http://www.w3.org/2000/svg" xmlns:xlink="http://www.w3.org/1999/xlink" width="1366" zoomAndPan="magnify" viewBox="0 0 1024.5 672.749985" height="768" preserveAspectRatio="xMidYMid meet" version="1.0"><defs><clipPath id="c50df10d3a"><path d="M 312 116 L 672 116 L 672 536 L 312 536 Z M 312 116 " clip-rule="nonzero"/></clipPath><clipPath id="a8c8d767a7"><path d="M 321.835938 104.640625 L 730.492188 130.910156 L 702.347656 568.757812 L 293.691406 542.488281 Z M 321.835938 104.640625 " clip-rule="nonzero"/></clipPath><clipPath id="e265463073"><path d="M 730.785156 130.929688 L 322.128906 104.660156 L 293.984375 542.507812 L 702.640625 568.777344 Z M 730.785156 130.929688 " clip-rule="nonzero"/></clipPath><clipPath id="14ed6ea7c9"><path d="M 328 113 L 716 113 L 716 551 L 328 551 Z M 328 113 " clip-rule="nonzero"/></clipPath><clipPath id="314149d28d"><path d="M 321.835938 104.640625 L 730.492188 130.910156 L 702.347656 568.757812 L 293.691406 542.488281 Z M 321.835938 104.640625 " clip-rule="nonzero"/></clipPath><clipPath id="a8da8eabe4"><path d="M 730.785156 130.929688 L 322.128906 104.660156 L 293.984375 542.507812 L 702.640625 568.777344 Z M 730.785156 130.929688 " clip-rule="nonzero"/></clipPath></defs><g clip-path="url(#c50df10d3a)"><g clip-path="url(#a8c8d767a7)"><g clip-path="url(#e265463073)"><path fill="#000000" d="M 635.359375 269.683594 C 601.21875 242.984375 562.546875 215.996094 521.371094 201.378906 C 480.191406 186.765625 433.679688 184.347656 393.367188 200.558594 C 353.054688 216.773438 319.929688 253.964844 313.191406 296.84375 C 306.941406 340.894531 331.230469 388.042969 372.371094 403.226562 C 410.183594 417.054688 458.707031 405.925781 486.425781 435.0625 C 504.53125 454.460938 507.058594 485.96875 528.816406 501.613281 C 551.109375 517.863281 583.046875 507.949219 605.714844 491.742188 C 639.136719 467.675781 662.625 429.863281 669.21875 389.257812 C 675.703125 350.351562 668.964844 295.78125 635.359375 269.683594 Z M 451.886719 529.722656 C 447.625 534.007812 441.207031 536.441406 436.21875 534.414062 C 430.660156 532.34375 428.261719 525.351562 429.230469 519.148438 C 430.164062 513.507812 433.929688 508.050781 438.1875 503.765625 C 459.101562 479.464844 467.679688 514.210938 451.886719 529.722656 Z M 428.773438 136.730469 C 426.265625 131.441406 426.136719 124.59375 429.832031 120.273438 C 434.089844 115.988281 441.496094 115.894531 446.414062 119.058594 C 451.332031 122.222656 454.972656 127.585938 457.476562 132.878906 C 472.765625 160.644531 437.699219 157.25 428.773438 136.730469 Z M 428.773438 136.730469 " fill-opacity="1" fill-rule="nonzero"/></g></g></g><g clip-path="url(#14ed6ea7c9)"><g clip-path="url(#314149d28d)"><g clip-path="url(#a8da8eabe4)"><path fill="#ffffff" d="M 407.285156 471.007812 C 411.816406 471.296875 415.820312 470.984375 420.394531 470.710938 C 443.355469 467.625 462.441406 454.035156 480.359375 440.941406 C 484.507812 438.359375 488.128906 435.171875 492.277344 432.589844 C 511.929688 419.035156 540.6875 405.5 565.042969 416.183594 C 577.75 422.128906 587.828125 433.601562 597.300781 445.609375 C 609.460938 460.066406 621.582031 475.09375 640.746094 478.035156 C 654.84375 480.082031 670.015625 474.21875 678.753906 462.242188 C 687.457031 450.835938 689.082031 434.414062 682.515625 421.453125 C 682.019531 420.28125 680.355469 419.605469 678.621094 420.0625 C 677.449219 420.558594 676.773438 422.226562 677.230469 423.964844 C 682.207031 435.109375 681.292969 449.300781 673.835938 459.078125 C 666.378906 468.855469 653.507812 474.296875 641.109375 472.359375 C 624.214844 469.566406 613.117188 456.3125 601.523438 441.890625 C 591.484375 429.847656 581.480469 417.238281 567.070312 411.183594 C 540.523438 399.21875 509.992188 413.78125 488.601562 427.792969 C 484.453125 430.375 480.832031 433.5625 476.683594 436.144531 C 458.804688 448.671875 440.320312 461.730469 419.058594 464.925781 C 394.960938 467.933594 368.941406 456.574219 352.648438 435.582031 C 337.945312 416.398438 331.121094 389.746094 334.535156 363.183594 C 337.203125 339.417969 346.707031 315.523438 363.011719 292.070312 C 392.605469 247.8125 437.90625 215.960938 487.601562 204.339844 C 539.03125 192.257812 594.136719 202.640625 636.101562 231.550781 C 679.164062 261.105469 707.234375 311.347656 709.65625 362.222656 C 709.546875 363.925781 711.175781 365.167969 712.910156 364.710938 C 714.613281 364.820312 715.855469 363.191406 715.398438 361.453125 C 713.085938 308.875 683.953125 257.421875 639.832031 226.664062 C 596.769531 197.109375 539.394531 186.582031 486.832031 198.589844 C 435.96875 210.707031 389.496094 243.050781 358.734375 287.804688 C 341.789062 312.359375 332.210938 337.386719 329.507812 361.71875 C 326.550781 390.023438 333.300781 417.8125 349.0625 438.199219 C 363.164062 457.910156 385.179688 469.585938 407.285156 471.007812 Z M 439.765625 550.027344 C 432.542969 547.285156 430.257812 538.589844 431.261719 531.816406 C 432.265625 525.039062 436.597656 519.621094 440.859375 515.335938 C 448.847656 506.160156 455.15625 505.425781 458.519531 506.210938 C 462.449219 507.035156 465.632812 510.660156 467.003906 515.875 C 469.328125 524.003906 467.355469 536.984375 458.871094 544.988281 C 455.253906 548.171875 449.933594 551.25 444.265625 550.886719 C 442.5625 550.777344 440.863281 550.667969 439.765625 550.027344 Z M 445.171875 519.03125 C 441.515625 522.785156 437.789062 527.675781 436.894531 532.746094 C 436.035156 537.25 437.9375 543.070312 441.832031 544.460938 C 446.257812 546.457031 451.578125 543.378906 454.59375 540.722656 C 461.265625 534.3125 463.09375 523.601562 461.226562 517.214844 C 460.769531 515.476562 459.289062 511.960938 457.019531 511.816406 C 457.019531 511.816406 456.453125 511.777344 456.453125 511.777344 C 453.621094 511.597656 449.46875 514.179688 445.171875 519.03125 Z M 436.070312 156.003906 C 427.570312 155.460938 416.597656 149.054688 411.621094 137.90625 C 409.117188 132.617188 407.964844 123.996094 413.464844 118.082031 C 418.96875 112.164062 428.039062 112.75 433.488281 116.519531 C 439.539062 119.757812 443.140625 125.6875 445.648438 130.976562 C 451.226562 141.59375 450.257812 147.800781 447.808594 150.492188 C 445.851562 154.355469 441.738281 156.371094 436.070312 156.003906 C 436.636719 156.042969 436.070312 156.003906 436.070312 156.003906 Z M 417.746094 122.34375 C 414.65625 126.136719 415.425781 131.882812 416.871094 135.964844 C 420.855469 144.769531 429.632812 149.894531 436.433594 150.332031 C 438.136719 150.441406 441.535156 150.660156 443.417969 147.929688 C 445.300781 145.203125 443.894531 140.550781 440.894531 134.089844 C 438.351562 129.367188 435.242188 124.609375 430.890625 121.480469 C 429.265625 120.234375 426.996094 120.089844 425.296875 119.980469 C 421.894531 119.761719 419.589844 120.183594 417.746094 122.34375 Z M 414.53125 136.953125 Z M 414.53125 136.953125 " fill-opacity="1" fill-rule="nonzero"/></g></g></g></svg>