<svg xmlns="http://www.w3.org/2000/svg" xmlns:xlink="http://www.w3.org/1999/xlink" width="1366" zoomAndPan="magnify" viewBox="0 0 1024.5 672.749985" height="768" preserveAspectRatio="xMidYMid meet" version="1.0"><defs><clipPath id="b09d1451f6"><path d="M 307.351562 200 L 705 200 L 705 446 L 307.351562 446 Z M 307.351562 200 " clip-rule="nonzero"/></clipPath></defs><path fill="#000000" d="M 363.667969 289.554688 C 394.722656 261.074219 442.09375 252.636719 481.046875 268.457031 C 528.941406 287.972656 560.523438 339.652344 610 353.894531 C 626.84375 358.640625 644.214844 359.167969 661.582031 362.332031 C 678.953125 365.496094 696.320312 372.878906 705.796875 387.644531 C 716.851562 405.046875 713.691406 429.304688 700.53125 445.128906 C 687.902344 461.476562 667.371094 469.914062 646.84375 472.550781 C 626.316406 475.1875 605.789062 472.023438 585.789062 468.332031 C 565.789062 464.640625 545.261719 459.894531 524.730469 459.367188 C 500.519531 458.3125 476.835938 463.058594 452.621094 466.222656 C 428.410156 468.859375 403.671875 469.914062 381.039062 461.476562 C 311.035156 435.632812 314.71875 334.378906 363.667969 289.554688 Z M 647.371094 267.402344 C 637.898438 268.984375 631.054688 277.953125 630.527344 287.445312 C 630.527344 295.882812 635.792969 304.320312 643.160156 307.484375 C 650.53125 310.648438 660.53125 309.066406 666.320312 303.265625 C 672.109375 297.464844 673.6875 287.445312 670.003906 280.0625 C 666.320312 272.152344 655.792969 265.820312 647.371094 267.402344 M 574.210938 241.035156 C 574.734375 250.527344 583.15625 258.4375 592.632812 259.492188 C 601.054688 260.546875 610 255.800781 613.683594 248.417969 C 617.894531 241.035156 616.84375 231.015625 611.578125 224.6875 C 606.316406 218.359375 596.316406 215.722656 588.421875 218.886719 C 580.523438 222.050781 573.683594 232.597656 574.210938 241.035156 " fill-opacity="1" fill-rule="nonzero"/><g clip-path="url(#b09d1451f6)"><path fill="#ffffff" d="M 631.054688 445.65625 C 625.265625 445.65625 618.949219 445.128906 612.632812 444.074219 C 590 440.382812 569.472656 430.886719 548.945312 421.921875 L 542.628906 419.285156 C 520.523438 409.792969 497.363281 400.300781 473.148438 399.246094 C 455.78125 398.71875 438.9375 401.882812 422.09375 405.574219 C 411.039062 407.683594 399.460938 410.320312 387.882812 411.375 C 364.195312 414.011719 330.507812 413.484375 315.773438 383.425781 C 315.246094 382.371094 315.773438 380.789062 316.824219 379.734375 C 317.875 379.207031 319.457031 379.734375 320.507812 380.789062 C 331.035156 401.355469 351.5625 409.265625 387.355469 405.574219 C 398.410156 404.519531 409.988281 401.882812 421.042969 399.773438 C 437.882812 396.082031 455.78125 392.390625 473.675781 393.445312 C 498.941406 394.5 523.152344 403.992188 545.261719 414.011719 L 551.574219 416.648438 C 571.578125 425.613281 592.105469 434.578125 614.210938 438.273438 C 641.054688 442.492188 665.792969 437.214844 682.109375 422.976562 C 698.425781 408.738281 706.847656 379.207031 692.113281 360.222656 C 680.53125 345.453125 661.582031 341.761719 641.054688 337.542969 C 632.109375 335.960938 623.160156 334.378906 615.265625 331.742188 C 590 323.832031 569.472656 305.375 549.996094 287.972656 C 536.3125 275.84375 521.574219 263.183594 505.785156 253.691406 C 470.519531 233.652344 425.777344 231.542969 388.933594 247.890625 C 352.089844 264.238281 322.085938 299.046875 312.613281 338.597656 C 312.085938 340.179688 311.035156 340.707031 309.457031 340.707031 C 307.875 340.179688 307.351562 339.125 307.351562 337.542969 C 317.351562 296.410156 346.824219 260.019531 385.25 243.144531 C 423.671875 226.269531 469.992188 228.90625 506.835938 249.472656 C 523.152344 258.964844 537.890625 271.625 552.101562 284.28125 C 572.105469 302.210938 591.050781 319.085938 615.789062 326.996094 C 623.6875 329.632812 632.632812 331.214844 641.054688 332.796875 C 661.582031 336.488281 682.636719 340.707031 695.269531 357.058594 C 712.113281 378.679688 703.164062 410.847656 684.742188 427.195312 C 671.058594 439.328125 652.109375 445.65625 631.054688 445.65625 Z M 682.109375 296.410156 C 688.953125 289.554688 690.53125 278.480469 686.320312 270.039062 C 681.585938 261.074219 669.476562 254.746094 660.53125 256.328125 C 650.003906 257.910156 642.109375 267.929688 641.582031 279.007812 C 641.582031 288.5 647.371094 297.992188 655.792969 301.683594 C 658.953125 302.738281 662.109375 303.792969 665.269531 303.792969 C 671.582031 303.792969 677.898438 301.15625 682.109375 296.410156 Z M 681.585938 272.679688 C 684.742188 279.007812 683.691406 287.972656 678.425781 293.246094 C 673.164062 298.519531 664.742188 300.101562 657.898438 296.9375 C 651.054688 293.773438 646.320312 286.917969 646.84375 279.007812 C 646.84375 270.570312 653.6875 262.65625 661.582031 261.601562 C 662.109375 261.601562 663.164062 261.601562 663.6875 261.601562 C 670.53125 261.601562 678.425781 266.347656 681.585938 272.679688 Z M 661.058594 258.964844 Z M 608.949219 235.234375 C 613.683594 226.796875 612.632812 215.722656 606.316406 208.339844 C 600 200.957031 589.472656 198.320312 580.523438 201.484375 C 571.050781 205.175781 563.683594 216.777344 564.734375 225.742188 C 565.261719 236.289062 574.210938 245.253906 585.261719 246.835938 C 586.316406 246.835938 586.839844 246.835938 587.894531 246.835938 C 596.316406 247.890625 604.738281 242.617188 608.949219 235.234375 Z M 602.632812 212.03125 C 607.371094 217.832031 607.894531 226.269531 604.738281 232.597656 C 601.054688 238.925781 593.683594 243.144531 586.316406 242.089844 C 577.894531 241.035156 571.050781 234.179688 570.523438 225.742188 C 570 218.359375 575.789062 209.394531 583.15625 206.757812 C 585.261719 206.230469 587.367188 205.703125 589.472656 205.703125 C 594.210938 205.703125 599.472656 208.339844 602.632812 212.03125 Z M 602.632812 212.03125 " fill-opacity="1" fill-rule="nonzero"/></g></svg>