<svg xmlns="http://www.w3.org/2000/svg" xmlns:xlink="http://www.w3.org/1999/xlink" width="1366" zoomAndPan="magnify" viewBox="0 0 1024.5 672.749985" height="768" preserveAspectRatio="xMidYMid meet" version="1.0"><path fill="#000000" d="M 382.042969 205.925781 C 398.757812 182.394531 424.871094 166.183594 453.078125 160.433594 C 471.882812 156.773438 493.820312 158.339844 508.445312 171.414062 C 523.070312 184.488281 527.246094 205.925781 527.246094 225.273438 C 527.769531 245.144531 525.15625 265.015625 529.859375 283.839844 C 532.992188 295.34375 540.304688 307.894531 552.320312 309.988281 C 565.898438 312.601562 577.914062 301.621094 589.402344 294.300781 C 613.953125 278.613281 646.335938 277.566406 671.929688 291.160156 C 697.523438 304.757812 714.761719 331.949219 715.804688 361.234375 C 716.851562 384.242188 706.402344 408.292969 686.03125 418.753906 C 660.4375 431.304688 625.964844 420.320312 602.984375 437.054688 C 592.539062 444.375 586.269531 456.402344 578.433594 466.859375 C 562.242188 488.824219 538.214844 505.558594 511.578125 511.308594 C 484.9375 516.539062 455.167969 509.738281 435.320312 491.4375 C 414.949219 473.136719 405.546875 442.808594 413.902344 416.660156 C 417.558594 404.632812 424.351562 394.175781 429.574219 382.671875 C 434.796875 371.167969 437.929688 358.09375 433.75 346.589844 C 423.828125 318.351562 385.175781 313.125 368.460938 290.117188 C 349.65625 266.0625 366.894531 226.84375 382.042969 205.925781 Z M 599.851562 229.457031 C 602.460938 237.824219 612.386719 243.054688 620.742188 240.4375 C 629.101562 237.824219 634.324219 227.890625 631.710938 219.523438 C 625.445312 199.128906 593.582031 209.0625 599.851562 229.457031 Z M 313.617188 386.855469 C 316.230469 395.222656 326.152344 400.449219 334.511719 397.835938 C 342.867188 395.222656 348.089844 385.285156 345.480469 376.917969 C 339.210938 356.527344 307.351562 366.460938 313.617188 386.855469 Z M 313.617188 386.855469 " fill-opacity="1" fill-rule="nonzero"/><path fill="#ffffff" d="M 424.351562 491.4375 C 416.515625 491.4375 409.203125 490.390625 401.890625 487.253906 C 386.21875 480.980469 374.207031 466.339844 370.027344 450.128906 C 365.851562 433.394531 370.550781 415.617188 381.519531 402.542969 C 382.5625 401.496094 384.132812 401.496094 385.175781 402.542969 C 386.21875 403.589844 386.21875 405.15625 385.175781 406.203125 C 375.25 417.707031 371.074219 434.441406 374.730469 449.082031 C 378.386719 464.246094 389.355469 476.796875 403.457031 482.546875 C 426.960938 491.960938 453.601562 482.027344 477.105469 471.042969 L 480.761719 469.476562 C 503.742188 458.496094 527.769531 446.992188 553.363281 451.171875 C 564.855469 453.265625 575.824219 458.496094 586.792969 463.199219 C 602.460938 470.523438 617.085938 477.320312 632.757812 474.183594 C 657.304688 469.476562 670.363281 442.285156 675.585938 426.597656 C 682.375 406.726562 684.464844 389.992188 681.332031 375.875 C 677.675781 357.570312 665.664062 343.453125 650.515625 338.746094 C 640.070312 335.609375 628.054688 337.703125 616.5625 339.269531 C 601.417969 341.363281 585.746094 343.976562 572.6875 335.609375 C 558.585938 326.71875 551.796875 308.417969 552.839844 281.226562 L 553.363281 274.953125 C 554.40625 257.695312 554.929688 239.917969 546.050781 226.320312 C 536.125 211.679688 517.324219 206.972656 506.875 205.402344 C 469.269531 200.175781 428.527344 216.90625 405.546875 247.761719 C 383.085938 278.613281 378.386719 322.535156 395.101562 357.050781 C 395.621094 358.617188 395.101562 359.664062 394.054688 360.710938 C 393.011719 361.234375 391.445312 360.710938 390.398438 359.664062 C 373.164062 323.582031 377.863281 277.566406 401.367188 245.144531 C 425.394531 212.726562 467.703125 194.945312 507.398438 200.699219 C 526.726562 203.3125 541.871094 211.679688 550.230469 223.707031 C 560.675781 238.871094 559.632812 257.695312 558.585938 275.472656 L 558.0625 281.226562 C 557.019531 306.328125 562.765625 323.058594 575.300781 330.902344 C 586.792969 338.222656 600.894531 336.132812 615.519531 333.519531 C 627.53125 331.425781 640.070312 329.859375 652.082031 332.996094 C 668.796875 337.703125 682.375 353.910156 686.554688 373.78125 C 689.6875 388.945312 687.601562 406.726562 680.289062 427.644531 C 674.542969 444.375 660.4375 473.660156 633.277344 478.886719 C 616.042969 482.027344 599.851562 474.703125 584.179688 467.382812 C 573.734375 462.679688 563.289062 457.449219 552.320312 455.878906 C 528.8125 452.21875 505.308594 463.199219 482.851562 473.660156 L 479.195312 475.226562 C 462.480469 483.59375 443.152344 491.4375 424.351562 491.4375 Z M 628.054688 222.136719 C 637.980469 219 643.726562 208.019531 640.589844 198.082031 C 638.5 191.285156 633.800781 186.578125 627.53125 185.53125 C 620.21875 183.964844 612.386719 186.578125 607.683594 191.808594 C 602.984375 196.515625 601.9375 203.3125 604.027344 209.585938 C 606.640625 217.429688 614.476562 222.660156 622.832031 222.660156 C 624.921875 223.183594 626.488281 222.660156 628.054688 222.136719 Z M 609.25 208.019531 C 607.164062 201.742188 609.25 197.558594 611.863281 194.945312 C 615.519531 190.761719 621.789062 189.195312 627.011719 190.238281 C 630.144531 190.761719 634.324219 193.375 636.414062 199.652344 C 638.5 206.449219 633.800781 214.816406 627.011719 216.90625 C 619.699219 219.523438 611.339844 215.339844 609.25 208.019531 Z M 342.34375 379.535156 C 352.269531 376.398438 358.015625 365.414062 354.882812 355.480469 C 352.792969 348.683594 348.089844 343.976562 341.824219 342.929688 C 334.511719 341.363281 326.675781 343.976562 321.976562 349.207031 C 317.273438 353.910156 316.230469 360.710938 318.320312 366.984375 C 320.929688 374.828125 328.765625 380.058594 337.121094 380.058594 C 338.6875 380.582031 340.257812 380.058594 342.34375 379.535156 Z M 340.777344 348.160156 C 343.914062 348.683594 348.089844 351.296875 350.179688 357.570312 C 352.269531 364.371094 347.570312 372.738281 340.777344 374.828125 C 333.988281 376.917969 325.632812 372.738281 323.019531 365.9375 C 320.929688 359.664062 323.019531 355.480469 325.632812 352.867188 C 328.765625 349.726562 332.945312 347.636719 337.644531 347.636719 C 338.6875 347.636719 339.734375 347.636719 340.777344 348.160156 Z M 340.777344 348.160156 " fill-opacity="1" fill-rule="nonzero"/></svg>