<svg width="246" height="101" viewBox="0 0 246 101" fill="none" xmlns="http://www.w3.org/2000/svg">
<path fill-rule="evenodd" clip-rule="evenodd" d="M19.9459 0H86.4324L80.8474 18.6445H34.2406L34.2406 18.6448L34.2404 18.6445L25.2648 48.6078H55.1837L45.2107 34.1256L41.318 28.6323H77.8555L66.4865 66.5851H0L19.9459 0Z" fill="black"/>
<path fill-rule="evenodd" clip-rule="evenodd" d="M99.7296 0.666016H166.216L153.849 41.9497H119.404L116.351 51.9375H150.857L146.27 67.2511H79.7837L91.1533 29.2964H131.71L134.763 19.3086H94.1451L99.7296 0.666016Z" fill="black"/>
<path fill-rule="evenodd" clip-rule="evenodd" d="M179.513 0H246L226.054 66.5851H159.568L179.513 0ZM214.499 49.9375H182.126L185.407 39.9497H217.859L214.499 49.9375ZM188.403 29.2969H221.228L224.849 19.3091H191.855L188.403 29.2969Z" fill="black"/>
<path fill-rule="evenodd" clip-rule="evenodd" d="M202.187 72.252H192.557L201.398 100.402H211.029L202.187 72.252ZM180.491 100.402H190.057L181.215 72.252H171.649L180.491 100.402ZM169.15 100.402H159.647L150.805 72.252H160.308L169.15 100.402ZM138.74 100.402H148.306L139.464 72.252H0V100.402H127.399L123 86.3974L133.575 83.959L138.74 100.402ZM226 72.252H213.528L222.37 100.402H226V72.252ZM13.22 93.252H15.86V88.412C15.86 87.9453 15.72 87.5586 15.44 87.252C15.1733 86.9453 14.8067 86.7653 14.34 86.712V86.352C14.98 86.0853 15.4533 85.7053 15.76 85.212C16.0667 84.7053 16.22 84.1653 16.22 83.592V83.112C16.22 82.5786 16.12 82.0786 15.92 81.612C15.7333 81.1453 15.4533 80.7386 15.08 80.392C14.72 80.032 14.2667 79.752 13.72 79.552C13.1733 79.352 12.54 79.252 11.82 79.252H6.46001V93.252H9.10001V87.972H12.14C12.5267 87.972 12.8 88.072 12.96 88.272C13.1333 88.472 13.22 88.732 13.22 89.052V93.252ZM11.62 85.452H9.10001V81.772H11.62C12.26 81.772 12.7467 81.9453 13.08 82.292C13.4133 82.6253 13.58 83.0253 13.58 83.492V83.732C13.58 84.2786 13.4133 84.7053 13.08 85.012C12.7467 85.3053 12.26 85.452 11.62 85.452ZM21.5661 80.472C20.6594 81.472 20.2061 82.8786 20.2061 84.692V87.812C20.2061 89.6786 20.6594 91.0986 21.5661 92.072C22.4861 93.0453 23.7528 93.532 25.3661 93.532C26.9794 93.532 28.2394 93.0453 29.1461 92.072C30.0661 91.0986 30.5261 89.6786 30.5261 87.812V84.692C30.5261 82.8786 30.0661 81.472 29.1461 80.472C28.2394 79.472 26.9794 78.972 25.3661 78.972C23.7528 78.972 22.4861 79.472 21.5661 80.472ZM26.5661 90.912C26.2461 91.0586 25.8461 91.132 25.3661 91.132C24.8861 91.132 24.4861 91.0586 24.1661 90.912C23.8461 90.752 23.5861 90.532 23.3861 90.252C23.1861 89.972 23.0461 89.6386 22.9661 89.252C22.8861 88.8653 22.8461 88.4386 22.8461 87.972V84.532C22.8461 84.092 22.8928 83.6786 22.9861 83.292C23.0794 82.9053 23.2261 82.572 23.4261 82.292C23.6261 82.012 23.8861 81.792 24.2061 81.632C24.5261 81.4586 24.9128 81.372 25.3661 81.372C25.8194 81.372 26.2061 81.4586 26.5261 81.632C26.8461 81.792 27.1061 82.012 27.3061 82.292C27.5061 82.572 27.6528 82.9053 27.7461 83.292C27.8394 83.6786 27.8861 84.092 27.8861 84.532V87.972C27.8861 88.4386 27.8461 88.8653 27.7661 89.252C27.6861 89.6386 27.5461 89.972 27.3461 90.252C27.1461 90.532 26.8861 90.752 26.5661 90.912ZM35.7322 90.732H34.4122V93.252H40.5522C41.2189 93.252 41.8055 93.1586 42.3122 92.972C42.8322 92.7853 43.2655 92.532 43.6122 92.212C43.9722 91.8786 44.2389 91.492 44.4122 91.052C44.5989 90.5986 44.6922 90.112 44.6922 89.592V89.352C44.6922 88.552 44.4655 87.912 44.0122 87.432C43.5722 86.9386 43.0122 86.5986 42.3322 86.412V86.052C43.0122 85.8653 43.5722 85.532 44.0122 85.052C44.4655 84.572 44.6922 83.932 44.6922 83.132V82.892C44.6922 82.372 44.5989 81.892 44.4122 81.452C44.2389 80.9986 43.9722 80.612 43.6122 80.292C43.2655 79.972 42.8322 79.7186 42.3122 79.532C41.8055 79.3453 41.2189 79.252 40.5522 79.252H34.4122V81.772H35.7322V90.732ZM40.2922 90.732H38.3722V87.492H40.2922C40.8522 87.492 41.3055 87.612 41.6522 87.852C41.9989 88.092 42.1722 88.492 42.1722 89.052V89.172C42.1722 89.732 41.9989 90.132 41.6522 90.372C41.3055 90.612 40.8522 90.732 40.2922 90.732ZM40.2922 84.972H38.3722V81.772H40.2922C40.8522 81.772 41.3055 81.892 41.6522 82.132C41.9989 82.3586 42.1722 82.752 42.1722 83.312V83.432C42.1722 83.992 41.9989 84.392 41.6522 84.632C41.3055 84.8586 40.8522 84.972 40.2922 84.972ZM50.0583 80.472C49.1516 81.472 48.6983 82.8786 48.6983 84.692V87.812C48.6983 89.6786 49.1516 91.0986 50.0583 92.072C50.9783 93.0453 52.2449 93.532 53.8583 93.532C55.4716 93.532 56.7316 93.0453 57.6383 92.072C58.5583 91.0986 59.0183 89.6786 59.0183 87.812V84.692C59.0183 82.8786 58.5583 81.472 57.6383 80.472C56.7316 79.472 55.4716 78.972 53.8583 78.972C52.2449 78.972 50.9783 79.472 50.0583 80.472ZM55.0583 90.912C54.7383 91.0586 54.3383 91.132 53.8583 91.132C53.3783 91.132 52.9783 91.0586 52.6583 90.912C52.3383 90.752 52.0783 90.532 51.8783 90.252C51.6783 89.972 51.5383 89.6386 51.4583 89.252C51.3783 88.8653 51.3383 88.4386 51.3383 87.972V84.532C51.3383 84.092 51.3849 83.6786 51.4783 83.292C51.5716 82.9053 51.7183 82.572 51.9183 82.292C52.1183 82.012 52.3783 81.792 52.6983 81.632C53.0183 81.4586 53.405 81.372 53.8583 81.372C54.3116 81.372 54.6983 81.4586 55.0183 81.632C55.3383 81.792 55.5983 82.012 55.7983 82.292C55.9983 82.572 56.1449 82.9053 56.2383 83.292C56.3316 83.6786 56.3783 84.092 56.3783 84.532V87.972C56.3783 88.4386 56.3383 88.8653 56.2583 89.252C56.1783 89.6386 56.0383 89.972 55.8383 90.252C55.6383 90.532 55.3783 90.752 55.0583 90.912ZM73.1444 79.252H63.0644V81.772H66.7844V93.252H69.4244V81.772H73.1444V79.252ZM87.0305 79.252H77.6705V81.772H81.0305V90.732H77.6705V93.252H87.0305V90.732H83.6705V81.772H87.0305V79.252ZM97.8766 90.912C97.5566 91.0586 97.1432 91.132 96.6366 91.132C96.1699 91.132 95.7699 91.0586 95.4366 90.912C95.1166 90.752 94.8566 90.532 94.6566 90.252C94.4566 89.972 94.3099 89.6453 94.2166 89.272C94.1232 88.8853 94.0766 88.4653 94.0766 88.012V84.492C94.0766 84.0786 94.1232 83.6853 94.2166 83.312C94.3232 82.9253 94.4832 82.592 94.6966 82.312C94.9099 82.0186 95.1766 81.792 95.4966 81.632C95.8166 81.4586 96.1966 81.372 96.6366 81.372C97.1166 81.372 97.5166 81.4586 97.8366 81.632C98.1566 81.792 98.4099 82.0053 98.5966 82.272C98.7832 82.5386 98.9166 82.8386 98.9966 83.172C99.0766 83.5053 99.1166 83.8386 99.1166 84.172V84.532H101.757V84.172C101.757 83.372 101.643 82.652 101.417 82.012C101.203 81.372 100.877 80.8253 100.437 80.372C100.01 79.9186 99.4766 79.572 98.8366 79.332C98.1966 79.092 97.4632 78.972 96.6366 78.972C95.8366 78.972 95.1166 79.1053 94.4766 79.372C93.8366 79.6253 93.2899 79.9986 92.8366 80.492C92.3832 80.972 92.0366 81.572 91.7966 82.292C91.5566 82.9986 91.4366 83.7986 91.4366 84.692V87.812C91.4366 89.6786 91.9032 91.0986 92.8366 92.072C93.7699 93.0453 95.0366 93.532 96.6366 93.532C98.3032 93.532 99.5699 93.0853 100.437 92.192C101.317 91.2853 101.757 89.9986 101.757 88.332V87.972H99.1166V88.332C99.1166 88.692 99.0832 89.0453 99.0166 89.392C98.9499 89.7253 98.8232 90.0253 98.6366 90.292C98.4632 90.5453 98.2099 90.752 97.8766 90.912ZM112.583 82.072C113.023 82.4853 113.243 82.972 113.243 83.532V84.012H115.883V83.292C115.883 82.7186 115.769 82.172 115.543 81.652C115.329 81.132 115.003 80.672 114.563 80.272C114.136 79.872 113.603 79.5586 112.963 79.332C112.323 79.092 111.589 78.972 110.763 78.972C110.029 78.972 109.363 79.072 108.763 79.272C108.176 79.472 107.669 79.752 107.243 80.112C106.829 80.472 106.503 80.8986 106.263 81.392C106.036 81.872 105.923 82.3986 105.923 82.972V83.092C105.923 83.7853 106.043 84.372 106.283 84.852C106.523 85.332 106.856 85.732 107.283 86.052C107.723 86.372 108.236 86.632 108.823 86.832C109.409 87.0186 110.056 87.172 110.763 87.292C111.296 87.3853 111.736 87.4986 112.083 87.632C112.429 87.7653 112.703 87.9186 112.903 88.092C113.103 88.252 113.243 88.4386 113.323 88.652C113.403 88.852 113.443 89.0653 113.443 89.292C113.443 89.772 113.249 90.1853 112.863 90.532C112.476 90.8786 111.883 91.052 111.083 91.052C110.056 91.052 109.296 90.8053 108.803 90.312C108.323 89.8053 108.083 89.132 108.083 88.292V87.812H105.443V88.412C105.443 89.1453 105.563 89.8253 105.803 90.452C106.043 91.0653 106.396 91.6053 106.863 92.072C107.329 92.5253 107.909 92.8853 108.603 93.152C109.309 93.4053 110.123 93.532 111.043 93.532C111.829 93.532 112.536 93.432 113.163 93.232C113.789 93.032 114.323 92.7453 114.763 92.372C115.203 91.9986 115.536 91.552 115.763 91.032C116.003 90.4986 116.123 89.9053 116.123 89.252V89.012C116.123 87.7853 115.736 86.8586 114.963 86.232C114.189 85.6053 113.069 85.1586 111.603 84.892C111.016 84.7853 110.529 84.672 110.143 84.552C109.769 84.432 109.463 84.2986 109.223 84.152C108.996 83.992 108.836 83.8186 108.743 83.632C108.649 83.432 108.603 83.212 108.603 82.972C108.603 82.5053 108.796 82.1386 109.183 81.872C109.569 81.592 110.096 81.452 110.763 81.452C111.549 81.452 112.156 81.6586 112.583 82.072Z" fill="black"/>
</svg>
